HIERARCHY
ROOT character_B_root
{
	OFFSET 0.000000 0.000000 0.000000
	CHANNELS 6 Xposition Yposition Zposition Xrotation Yrotation Zrotation
	JOINT character_B_pelvis
	{
		OFFSET 0.000000 0.000000 0.000000
		CHANNELS 3 Xrotation Yrotation Zrotation
		JOINT character_B_spine
		{
			OFFSET -0.005949 0.551378 0.000000
			CHANNELS 3 Xrotation Yrotation Zrotation
			JOINT character_B_head
			{
				OFFSET -0.011221 0.241134 0.000000
				CHANNELS 3 Xrotation Yrotation Zrotation
				JOINT character_B_nose
				{
					OFFSET -0.004159 -0.142665 -0.000261
					CHANNELS 3 Xrotation Yrotation Zrotation
					End Site
					{
						OFFSET 0.000000 0.050000 0.000000
					}
				}
			}
			JOINT character_B_left_shoulder
			{
				OFFSET 0.093188 -0.066956 0.092540
				CHANNELS 3 Xrotation Yrotation Zrotation
				JOINT character_B_left_elbow
				{
					OFFSET 0.026481 -0.252143 -0.089385
					CHANNELS 3 Xrotation Yrotation Zrotation
					JOINT character_B_left_wrist
					{
						OFFSET -0.001396 -0.164778 -0.154831
						CHANNELS 3 Xrotation Yrotation Zrotation
						End Site
						{
							OFFSET 0.000000 0.050000 0.000000
						}
					}
				}
			}
			JOINT character_B_right_shoulder
			{
				OFFSET -0.052646 -0.054758 0.152841
				CHANNELS 3 Xrotation Yrotation Zrotation
				JOINT character_B_right_elbow
				{
					OFFSET -0.025750 -0.252567 -0.055740
					CHANNELS 3 Xrotation Yrotation Zrotation
					JOINT character_B_right_wrist
					{
						OFFSET 0.022565 -0.178373 -0.161123
						CHANNELS 3 Xrotation Yrotation Zrotation
						End Site
						{
							OFFSET 0.000000 0.050000 0.000000
						}
					}
				}
			}
		}
		JOINT character_B_left_hip
		{
			OFFSET 0.053047 -0.014449 0.105832
			CHANNELS 3 Xrotation Yrotation Zrotation
			JOINT character_B_left_knee
			{
				OFFSET 0.010852 -0.388560 0.128200
				CHANNELS 3 Xrotation Yrotation Zrotation
				JOINT character_B_left_ankle
				{
					OFFSET -0.005897 -0.374408 0.161260
					CHANNELS 3 Xrotation Yrotation Zrotation
					JOINT character_B_left_big_toe
					{
						OFFSET 0.012109 -0.098215 0.034452
						CHANNELS 3 Xrotation Yrotation Zrotation
						End Site
						{
							OFFSET 0.000000 0.050000 0.000000
						}
					}
					JOINT character_B_left_small_toe
					{
						OFFSET 0.041617 -0.095586 0.019459
						CHANNELS 3 Xrotation Yrotation Zrotation
						End Site
						{
							OFFSET 0.000000 0.050000 0.000000
						}
					}
					JOINT character_B_left_heel
					{
						OFFSET -0.014884 -0.052778 0.025198
						CHANNELS 3 Xrotation Yrotation Zrotation
						End Site
						{
							OFFSET 0.000000 0.050000 0.000000
						}
					}
				}
			}
		}
		JOINT character_B_right_hip
		{
			OFFSET -0.043381 -0.011457 0.270438
			CHANNELS 3 Xrotation Yrotation Zrotation
			JOINT character_B_right_knee
			{
				OFFSET 0.014721 -0.382947 0.164918
				CHANNELS 3 Xrotation Yrotation Zrotation
				JOINT character_B_right_ankle
				{
					OFFSET 0.029970 -0.363014 0.179744
					CHANNELS 3 Xrotation Yrotation Zrotation
					JOINT character_B_right_big_toe
					{
						OFFSET 0.007171 -0.100675 0.041990
						CHANNELS 3 Xrotation Yrotation Zrotation
						End Site
						{
							OFFSET 0.000000 0.050000 0.000000
						}
					}
					JOINT character_B_right_small_toe
					{
						OFFSET -0.022736 -0.093093 0.035638
						CHANNELS 3 Xrotation Yrotation Zrotation
						End Site
						{
							OFFSET 0.000000 0.050000 0.000000
						}
					}
					JOINT character_B_right_heel
					{
						OFFSET 0.012696 -0.052984 0.028899
						CHANNELS 3 Xrotation Yrotation Zrotation
						End Site
						{
							OFFSET 0.000000 0.050000 0.000000
						}
					}
				}
			}
		}
	}
}
MOTION
Frames: 7
Frame Time: 0.03333333
0.350152 -0.178072 0.788919 0.000000 0.000000 0.000000 -2.519314 -22.827188 10.220154 6.656567 -0.483748 15.898567 6.664140 21.498343 -37.672798 0.000000 0.000000 -0.000000 29.762083 8.322115 -20.938833 -36.169120 4.590981 -9.128934 -0.000000 0.000000 0.000000 11.238526 15.437722 -15.749330 23.933978 23.631618 -57.359328 0.000000 0.000000 -0.000000 -0.887076 14.179833 -40.927571 7.706797 19.927272 37.889484 104.963505 -2.862360 -145.401766 -0.000000 0.000000 0.000000 -0.000000 0.000000 0.000000 -0.000000 0.000000 0.000000 30.783801 21.248405 -13.123653 -11.397141 7.762238 10.111695 2.320872 -2.272877 -14.016872 0.000000 0.000000 0.000000 0.000000 0.000000 0.000000 0.000000 0.000000 0.000000
0.338203 -0.175676 0.785542 0.000000 0.000000 0.000000 -2.436053 -22.223998 10.069305 5.351314 0.185424 13.991869 6.545216 20.286408 -35.513214 0.000000 0.000000 -0.000000 29.195108 8.239024 -16.531042 -35.140344 9.719051 -13.810836 0.000000 0.000000 0.000000 9.818257 15.050824 -12.295708 24.795582 22.219860 -55.453035 -0.000000 0.000000 0.000000 -0.273455 13.648788 -39.713566 10.684023 22.146545 37.406153 106.603507 -7.228976 -146.451127 -0.000000 0.000000 0.000000 -0.000000 0.000000 0.000000 -0.000000 0.000000 0.000000 30.287528 21.127302 -12.233887 -9.086753 7.778927 9.628812 3.567782 11.101218 -23.325339 -0.000000 0.000000 -0.000000 -0.000000 0.000000 -0.000000 -0.000000 0.000000 -0.000000
0.328139 -0.173181 0.779848 0.000000 0.000000 0.000000 -1.996638 -21.664100 9.909795 4.324401 0.308161 13.132379 6.443388 19.750433 -33.656026 0.000000 0.000000 0.000000 28.818956 8.230649 -13.678327 -35.659004 11.340069 -14.971167 -0.000000 0.000000 -0.000000 8.392708 15.141948 -10.123932 25.414260 20.852423 -53.352101 0.000000 0.000000 0.000000 -0.262909 13.344909 -38.237602 12.746994 23.490047 36.996816 105.456815 -9.964127 -145.986134 0.000000 0.000000 0.000000 0.000000 0.000000 0.000000 0.000000 0.000000 0.000000 29.583739 21.025748 -11.456844 -7.869674 7.701183 9.241152 6.062653 19.939953 -32.607292 -0.000000 0.000000 0.000000 -0.000000 0.000000 0.000000 -0.000000 0.000000 0.000000
0.320656 -0.171902 0.768118 0.000000 0.000000 0.000000 -1.706263 -20.896956 9.608172 3.662891 -0.059676 12.826747 6.339701 19.474078 -31.677087 0.000000 0.000000 -0.000000 29.630490 8.083044 -13.036514 -38.029739 13.495784 -16.002887 -0.000000 0.000000 0.000000 7.307082 15.264689 -8.706137 26.691881 19.664104 -52.324182 0.000000 0.000000 0.000000 0.136054 12.643943 -36.965588 13.396239 24.396955 37.320502 108.252344 -12.613340 -145.070986 0.000000 0.000000 -0.000000 0.000000 0.000000 -0.000000 0.000000 0.000000 -0.000000 28.609251 20.870585 -10.316386 -7.280063 7.309639 8.559589 11.181263 24.748866 -39.542926 0.000000 0.000000 -0.000000 0.000000 0.000000 -0.000000 0.000000 0.000000 -0.000000
0.316633 -0.171154 0.750348 0.000000 0.000000 0.000000 -1.522805 -20.631677 9.580346 3.690148 -0.150651 13.203268 6.160174 19.365084 -30.184423 -0.000000 0.000000 0.000000 32.516771 7.155433 -15.489188 -42.010840 13.031052 -15.014567 -0.000000 0.000000 0.000000 6.622307 15.324054 -8.699756 28.924989 18.744085 -52.805080 0.000000 0.000000 -0.000000 1.447921 12.226553 -36.082887 12.795302 24.774699 37.852511 108.713969 -14.084924 -145.031537 -0.000000 0.000000 0.000000 -0.000000 0.000000 0.000000 -0.000000 0.000000 0.000000 28.117434 20.951064 -9.754270 -7.283251 6.742969 7.678436 11.543264 25.147081 -40.995254 -0.000000 0.000000 -0.000000 -0.000000 0.000000 -0.000000 -0.000000 0.000000 -0.000000
0.319602 -0.172479 0.759121 0.000000 0.000000 0.000000 -1.441250 -20.122582 10.216862 4.767832 -1.776833 15.235677 6.193267 20.441750 -30.099400 -0.000000 0.000000 -0.000000 34.303047 6.230930 -20.984776 -44.962247 11.180296 -13.205732 0.000000 0.000000 -0.000000 6.883940 16.415143 -12.685012 29.043943 19.576089 -53.317619 -0.000000 0.000000 -0.000000 5.074450 10.634980 -36.635385 9.347067 24.562006 39.054560 110.457366 -14.513585 -143.990035 -0.000000 0.000000 -0.000000 -0.000000 0.000000 -0.000000 -0.000000 0.000000 -0.000000 27.763115 20.428970 -9.792672 -6.694652 6.532464 7.307265 9.753335 23.833721 -38.939837 0.000000 0.000000 -0.000000 0.000000 0.000000 -0.000000 0.000000 0.000000 -0.000000
0.325435 -0.174656 0.770791 0.000000 0.000000 0.000000 -1.417889 -19.644995 10.604313 5.620742 -3.106328 16.781453 6.223094 21.298658 -29.593229 0.000000 0.000000 0.000000 32.877589 6.798677 -26.309029 -43.125705 9.360584 -11.837426 -0.000000 0.000000 0.000000 5.958903 17.822719 -15.125932 30.903223 19.887823 -54.237229 -0.000000 0.000000 -0.000000 9.775303 8.524845 -37.163441 4.398283 23.987618 40.431064 109.894321 -13.317416 -142.906017 0.000000 0.000000 -0.000000 0.000000 0.000000 -0.000000 0.000000 0.000000 -0.000000 27.044199 20.143640 -9.467813 -3.473977 6.825001 7.451500 3.308419 18.621206 -33.083191 -0.000000 0.000000 -0.000000 -0.000000 0.000000 -0.000000 -0.000000 0.000000 -0.000000
